<svg xmlns="http://www.w3.org/2000/svg" xmlns:xlink="http://www.w3.org/1999/xlink" version="1.1" x="0px" y="0px" viewBox="0 0 100 125" enable-background="new 0 0 100 100" xml:space="preserve"><g><g><path fill-rule="evenodd" clip-rule="evenodd" fill="#000000" d="M63.621,19.674v0.009c-0.06-0.001-0.117-0.009-0.178-0.009    c-5.671,0-10.635,2.982-13.444,7.456c-2.804-4.473-7.758-7.456-13.429-7.456c-0.09,0-0.177,0.012-0.266,0.014v-0.014H5v54.782    h30.326v0.037C40,74.7,44.134,76.933,46.9,80.326h6.203c2.908-3.576,7.328-5.87,12.298-5.87c0.06,0,0.118,0.009,0.178,0.01v-0.01    H95V19.674H63.621z M35.326,65.688v-0.036H8.913V23.587h27.391V23.6c0.089-0.001,0.176-0.013,0.266-0.013    c4.524,0,8.589,2.824,11.473,6.236v41.698H46.9C44.134,68.128,40,65.896,35.326,65.688z M91.087,65.652H65.578v0.01    c-0.06-0.001-0.118-0.01-0.178-0.01c-4.97,0-9.39,2.294-12.298,5.869h-1.146V29.826c2.89-3.414,6.961-6.239,11.487-6.239    c0.061,0,0.118,0.008,0.178,0.009v-0.009h27.466V65.652z"/></g></g><text x="0" y="115" fill="#000000" font-size="5px" font-weight="bold" font-family="'Helvetica Neue', Helvetica, Arial-Unicode, Arial, Sans-serif">Created by Alexander Bickov</text><text x="0" y="120" fill="#000000" font-size="5px" font-weight="bold" font-family="'Helvetica Neue', Helvetica, Arial-Unicode, Arial, Sans-serif">from the Noun Project</text></svg>