<svg xmlns="http://www.w3.org/2000/svg" xmlns:xlink="http://www.w3.org/1999/xlink" version="1.1" x="0px" y="0px" viewBox="0 0 100 125" enable-background="new 0 0 100 100" xml:space="preserve"><path fill-rule="evenodd" clip-rule="evenodd" d="M43,57c-0.7-0.7-1.7-1.2-2.7-1.2c-1,0-2,0.4-2.7,1.2c-2.5,2.6-2.2,5.6-2.1,5.7  c-0.2,2-1.4,3.7-2.6,4.8c0.4,0.1,0.8,0.1,1.3,0.1c4.8,0,8.8-4.7,8.8-4.7C42.9,62.8,45.6,59.6,43,57z M66.2,33.8  c-0.2-0.2-0.5-0.3-0.7-0.3c-0.2,0-0.4,0.1-0.6,0.2c-6.2,4.2-18,15.4-23.3,20.5c0,0,1.6,0,2.9,1.3c1.1,1.1,1.3,2.9,1.3,2.9  c5.1-5.3,16.4-17.1,20.6-23.3C66.6,34.7,66.6,34.1,66.2,33.8z"/><text x="0" y="115" fill="#000000" font-size="5px" font-weight="bold" font-family="'Helvetica Neue', Helvetica, Arial-Unicode, Arial, Sans-serif">Created by Montu Yadav</text><text x="0" y="120" fill="#000000" font-size="5px" font-weight="bold" font-family="'Helvetica Neue', Helvetica, Arial-Unicode, Arial, Sans-serif">from the Noun Project</text></svg>