<svg xmlns="http://www.w3.org/2000/svg" xmlns:xlink="http://www.w3.org/1999/xlink" version="1.1" x="0px" y="0px" viewBox="0 0 100 125" enable-background="new 0 0 100 100" xml:space="preserve"><path fill="#000000" d="M78.9,21.8h-3.6v13.9H62.7V21.8H39.7v13.9H27.1V21.8h-3.6c-4.4,0-7.9,3.6-7.9,7.9v51.5  c0,4.4,3.6,7.9,7.9,7.9h55.4c4.4,0,7.9-3.6,7.9-7.9V29.7C86.8,25.3,83.2,21.8,78.9,21.8z M78.9,81.2H23.5V42.5h55.4V81.2z   M29.8,28.8V13.6c0-1.9,1.5-3.5,3.5-3.5s3.5,1.5,3.5,3.5v15.2c0,1.9-1.5,3.5-3.5,3.5S29.8,30.7,29.8,28.8z M65.7,28.8V13.6  c0-1.9,1.5-3.5,3.5-3.5s3.5,1.5,3.5,3.5v15.2c0,1.9-1.5,3.5-3.5,3.5S65.7,30.7,65.7,28.8z"/><text x="0" y="115" fill="#000000" font-size="5px" font-weight="bold" font-family="'Helvetica Neue', Helvetica, Arial-Unicode, Arial, Sans-serif">Created by Joris Hoogendoorn</text><text x="0" y="120" fill="#000000" font-size="5px" font-weight="bold" font-family="'Helvetica Neue', Helvetica, Arial-Unicode, Arial, Sans-serif">from the Noun Project</text></svg>