<svg xmlns:dc="http://purl.org/dc/elements/1.1/" xmlns:cc="http://creativecommons.org/ns#" xmlns:rdf="http://www.w3.org/1999/02/22-rdf-syntax-ns#" xmlns:svg="http://www.w3.org/2000/svg" xmlns="http://www.w3.org/2000/svg" xmlns:sodipodi="http://sodipodi.sourceforge.net/DTD/sodipodi-0.dtd" xmlns:inkscape="http://www.inkscape.org/namespaces/inkscape" version="1.1" x="0px" y="0px" viewBox="0 0 100 125"><g transform="translate(0,-952.36218)"><path style="" d="m 41.666725,974.02898 c -11.96636,0 -21.666708,9.66669 -21.666708,21.66678 0,0 -0.0017,-0.02 0,0.3122 -5.946344,3 -10.0000175,9.02094 -10.0000175,16.35424 0,10.0001 8.2080155,18.3334 18.3333585,18.3334 l 0.104008,0 44.062585,0 0.83335,0 c 9.20335,0 16.666699,-7.6667 16.666699,-16.6666 0,-7 -4.32334,-13.0625 -10.4167,-15.72934 0.23668,-0.6666 0.41668,-1.60401 0.41668,-2.6041 0,-6.66661 -5.22335,-11.66667 -11.66669,-11.66667 -2.66,0 -5.12001,0.62488 -7.083347,2.29168 -3.476674,-7.33345 -10.940025,-12.29176 -19.583386,-12.29176 z m 1.666675,16.66678 13.333367,0 0,16.66664 6.666663,0 -13.333348,16.6667 -13.333366,-16.6667 6.666684,0 0,-16.66664 z" fill="#000000"/></g><text x="0" y="115" fill="#000000" font-size="5px" font-weight="bold" font-family="'Helvetica Neue', Helvetica, Arial-Unicode, Arial, Sans-serif">Created by Dalpat Prajapati</text><text x="0" y="120" fill="#000000" font-size="5px" font-weight="bold" font-family="'Helvetica Neue', Helvetica, Arial-Unicode, Arial, Sans-serif">from the Noun Project</text></svg>