<svg xmlns="http://www.w3.org/2000/svg" xmlns:xlink="http://www.w3.org/1999/xlink" version="1.1" x="0px" y="0px" viewBox="0 0 100 125" enable-background="new 0 0 100 100" xml:space="preserve"><path d="M93.111,7.647c-0.697-1.744-1.908-2.617-3.641-2.617H10.528c-1.725,0-2.94,0.874-3.64,2.617  c-0.699,1.833-0.41,3.397,0.865,4.694l30.406,33.07v28.166c0,1.162,0.391,2.173,1.17,3.021l15.793,17.168  c0.736,0.853,1.662,1.279,2.773,1.279c0.492,0,1.008-0.114,1.543-0.338c1.604-0.76,2.406-2.078,2.406-3.957V45.412l30.408-33.07  C93.527,11.044,93.809,9.48,93.111,7.647L93.111,7.647z"/><text x="0" y="115" fill="#000000" font-size="5px" font-weight="bold" font-family="'Helvetica Neue', Helvetica, Arial-Unicode, Arial, Sans-serif">Created by Trust Me Danny</text><text x="0" y="120" fill="#000000" font-size="5px" font-weight="bold" font-family="'Helvetica Neue', Helvetica, Arial-Unicode, Arial, Sans-serif">from the Noun Project</text></svg>