<svg xmlns="http://www.w3.org/2000/svg" xmlns:xlink="http://www.w3.org/1999/xlink" version="1.1" x="0px" y="0px" viewBox="0 0 100 125" style="enable-background:new 0 0 100 100;" xml:space="preserve"><g><g><g><path d="M55.791,26.094c0,10.329-8.36,18.693-18.678,18.693c-10.323,0-18.683-8.364-18.683-18.693     c0-10.317,8.359-18.678,18.683-18.678C47.431,7.416,55.791,15.776,55.791,26.094z"/><path d="M71.935,84.32c0,11.018-69.643,11.018-69.643,0c0-16.525,15.584-29,34.821-29C56.355,55.32,71.935,67.795,71.935,84.32z"/></g></g><polygon points="97.708,23.727 86.69,23.727 86.69,12.71 75.673,12.71 75.673,23.727 64.656,23.727 64.656,34.744 75.673,34.744    75.673,45.761 86.69,45.761 86.69,34.744 97.708,34.744  "/></g><text x="0" y="115" fill="#000000" font-size="5px" font-weight="bold" font-family="'Helvetica Neue', Helvetica, Arial-Unicode, Arial, Sans-serif">Created by Mike Ashley</text><text x="0" y="120" fill="#000000" font-size="5px" font-weight="bold" font-family="'Helvetica Neue', Helvetica, Arial-Unicode, Arial, Sans-serif">from the Noun Project</text></svg>