<svg xmlns:dc="http://purl.org/dc/elements/1.1/" xmlns:cc="http://creativecommons.org/ns#" xmlns:rdf="http://www.w3.org/1999/02/22-rdf-syntax-ns#" xmlns:svg="http://www.w3.org/2000/svg" xmlns="http://www.w3.org/2000/svg" version="1.1" viewBox="0 0 100 125" xml:space="preserve" x="0px" y="0px"><path d="m 47.15625,5 a 10.333058,10.333058 0 0 0 -10.625,10.34375 10.333058,10.333058 0 0 0 20.65625,0 A 10.333058,10.333058 0 0 0 47.15625,5 z m 25,1.75 c -1.445643,0.051746 -2.766458,1.2828565 -3.125,3.03125 L 66.875,20.25 55.46875,26.15625 c -0.370394,0.191683 -0.759215,0.182461 -1.09375,0.1875 -2.538755,-0.10454 -5.186302,-0.08491 -7.5,-0.09375 -0.609497,-0.0035 -1.227725,-0.0018 -1.84375,0 -1.848081,0.007 -3.727403,0.02029 -5.5,0.09375 -1.041724,0.04323 -2.450025,0.517566 -3.21875,1.34375 C 32.805279,31.456898 25.8125,39 25.8125,39 c -0.574282,0.617289 -0.95604,1.454703 -0.96875,2.375 -0.01078,0.788156 0.408948,1.856148 0.96875,2.53125 L 33.78125,53.5 c 1.022258,1.233382 2.540913,1.743637 3.78125,1.375 l 0,35.4375 c 0,2.597858 2.089658,4.6875 4.6875,4.6875 2.304184,0 4.192207,-1.627927 4.59375,-3.8125 0.0017,0.0086 0.02945,-0.0091 0.03125,0 0.401546,2.184573 2.289603,3.8125 4.59375,3.8125 2.597879,0 4.71875,-2.089642 4.71875,-4.6875 l 0,-56.8125 c 4.477243,-2.074498 8.990093,-4.543366 13.4375,-6.84375 1.325068,-0.685364 2.664043,-2.074415 2.9375,-3.40625 L 75.0625,11 C 75.472733,9.0019072 74.453514,7.1172475 72.78125,6.78125 72.567206,6.7383492 72.342748,6.7432329 72.15625,6.75 z m -34.59375,30.09375 0,11.59375 -5.09375,-6.125 5.09375,-5.46875 z" style="" fill="#000000" fill-opacity="1" fill-rule="nonzero" stroke="none"/><text x="0" y="115" fill="#000000" font-size="5px" font-weight="bold" font-family="'Helvetica Neue', Helvetica, Arial-Unicode, Arial, Sans-serif">Created by Aha-Soft</text><text x="0" y="120" fill="#000000" font-size="5px" font-weight="bold" font-family="'Helvetica Neue', Helvetica, Arial-Unicode, Arial, Sans-serif">from the Noun Project</text></svg>