<svg xmlns="http://www.w3.org/2000/svg" xmlns:xlink="http://www.w3.org/1999/xlink" version="1.1" x="0px" y="0px" viewBox="0 0 512 640" enable-background="new 0 0 512 512" xml:space="preserve"><path d="M256,0C167.625,0,96,71.625,96,160c0,23.875,5.25,46.563,14.594,66.875l121.875,264.469  C238.313,504.063,246.688,512,256,512s17.688-7.938,23.531-20.625l121.875-264.5C410.781,206.563,416,183.875,416,160  C416,71.625,344.375,0,256,0z M256,256c-53,0-96-43-96-96s43-96,96-96s96,43,96,96S309,256,256,256z"/><text x="0" y="527" fill="#000000" font-size="5px" font-weight="bold" font-family="'Helvetica Neue', Helvetica, Arial-Unicode, Arial, Sans-serif">Created by Simple Icons</text><text x="0" y="532" fill="#000000" font-size="5px" font-weight="bold" font-family="'Helvetica Neue', Helvetica, Arial-Unicode, Arial, Sans-serif">from the Noun Project</text></svg>