<svg xmlns="http://www.w3.org/2000/svg" xmlns:xlink="http://www.w3.org/1999/xlink" version="1.1" x="0px" y="0px" viewBox="0 0 48 60" enable-background="new 0 0 48 48" xml:space="preserve"><g><path d="M24.3,0.5h-0.6c-4.6,0-8.4,3.8-8.4,8.4v12.1c0,4.6,3.8,8.4,8.4,8.4h0.6c4.6,0,8.4-3.8,8.4-8.4V8.9   C32.7,4.3,28.9,0.5,24.3,0.5z"/><path d="M40.4,21.1c0-1.1-0.9-2-2-2s-2,0.9-2,2c0,6.9-5.6,12.4-12.4,12.4S11.6,28,11.6,21.1c0-1.1-0.9-2-2-2s-2,0.9-2,2   c0,8.4,6.3,15.3,14.4,16.2v6.2h-4.5c-1.1,0-2,0.9-2,2c0,1.1,0.9,2,2,2h12.9c1.1,0,2-0.9,2-2c0-1.1-0.9-2-2-2H26v-6.2   C34.1,36.4,40.4,29.5,40.4,21.1z"/></g><text x="0" y="63" fill="#000000" font-size="5px" font-weight="bold" font-family="'Helvetica Neue', Helvetica, Arial-Unicode, Arial, Sans-serif">Created by Vectors Market</text><text x="0" y="68" fill="#000000" font-size="5px" font-weight="bold" font-family="'Helvetica Neue', Helvetica, Arial-Unicode, Arial, Sans-serif">from the Noun Project</text></svg>