<svg xmlns="http://www.w3.org/2000/svg" xmlns:xlink="http://www.w3.org/1999/xlink" version="1.1" x="0px" y="0px" viewBox="0 0 40 50" enable-background="new 0 0 40 40" xml:space="preserve"><path fill-rule="evenodd" clip-rule="evenodd" d="M11,8.5h-1v1H9v-1H8v1H7v1h1v1H7v1h1v1h1v-1h1v1h1l0-1h1v-1  h-1l0-1h1v-1h-1L11,8.5z M10,11.5H9v-1h1V11.5z M11,26.5h-1v1H9v-1H8v1H7v1h1v1H7v1h1v1h1v-1h1v1h1l0-1h1v-1h-1l0-1h1v-1h-1L11,26.5  z M10,29.5H9v-1h1V29.5z M11,20.5h-1v1H9v-1H8v1H7v1h1v1H7v1h1v1h1v-1h1v1h1l0-1h1v-1h-1l0-1h1v-1h-1L11,20.5z M10,23.5H9v-1h1V23.5  z M11,14.5h-1v1H9v-1H8v1H7v1h1v1H7v1h1v1h1v-1h1v1h1l0-1h1v-1h-1l0-1h1v-1h-1L11,14.5z M10,17.5H9v-1h1V17.5z M14,9.5v3h19v-3H14z   M14,18.5h19v-3H14V18.5z M14,24.5h19v-3H14V24.5z M14,30.5h19v-3H14V30.5z"/><text x="0" y="55" fill="#000000" font-size="5px" font-weight="bold" font-family="'Helvetica Neue', Helvetica, Arial-Unicode, Arial, Sans-serif">Created by Hello Many</text><text x="0" y="60" fill="#000000" font-size="5px" font-weight="bold" font-family="'Helvetica Neue', Helvetica, Arial-Unicode, Arial, Sans-serif">from the Noun Project</text></svg>