<svg xmlns="http://www.w3.org/2000/svg" xmlns:xlink="http://www.w3.org/1999/xlink" version="1.1" x="0px" y="0px" viewBox="0 0 100 125" enable-background="new 0 0 100 100" xml:space="preserve"><g><path d="M77.1,26.5H22.9c-1.1,0-2,0.9-2,2v43c0,1.1,0.9,2,2,2h54.2c1.1,0,2-0.9,2-2v-43C79.1,27.4,78.2,26.5,77.1,26.5z M75.1,30.5   v27.8c-3.4-0.1-5.2-1.3-7.2-2.6c-2.3-1.6-4.9-3.3-9.9-3.3c-5,0-7.6,1.8-9.9,3.3c-2.1,1.4-3.9,2.7-7.7,2.7c-3.8,0-5.6-1.2-7.6-2.7   c-2-1.3-4.2-2.8-7.9-3.2V30.5H75.1z M24.9,69.5v-13c2.5,0.4,4,1.4,5.6,2.5c2.3,1.6,4.9,3.3,9.9,3.3c5,0,7.6-1.8,9.9-3.3   c2.1-1.4,3.9-2.7,7.6-2.7c3.8,0,5.6,1.2,7.6,2.7c2.2,1.5,4.7,3.2,9.4,3.3v7.2H24.9z"/><path d="M34.6,45.4c2.8,0,5.2-2.3,5.2-5.2s-2.3-5.2-5.2-5.2c-2.8,0-5.2,2.3-5.2,5.2S31.8,45.4,34.6,45.4z M34.6,39.1   c0.6,0,1.2,0.5,1.2,1.2s-0.5,1.2-1.2,1.2c-0.6,0-1.2-0.5-1.2-1.2S34,39.1,34.6,39.1z"/></g><text x="0" y="115" fill="#000000" font-size="5px" font-weight="bold" font-family="'Helvetica Neue', Helvetica, Arial-Unicode, Arial, Sans-serif">Created by Elliot Midson</text><text x="0" y="120" fill="#000000" font-size="5px" font-weight="bold" font-family="'Helvetica Neue', Helvetica, Arial-Unicode, Arial, Sans-serif">from the Noun Project</text></svg>