<svg xmlns="http://www.w3.org/2000/svg" xmlns:xlink="http://www.w3.org/1999/xlink" version="1.1" x="0px" y="0px" viewBox="0 0 48 60" enable-background="new 0 0 48 48" xml:space="preserve"><g><path d="M26.463,0.034c-0.139,0-0.252,0.114-0.252,0.253v21.284c0,0.14,0.113,0.253,0.252,0.253h21.284   c0.14,0,0.253-0.113,0.253-0.253C48,9.696,38.339,0.034,26.463,0.034z"/><path d="M42.822,26.176H23.526l12.206,16.408c4.489-3.95,7.342-9.719,7.342-16.155C43.074,26.29,42.961,26.176,42.822,26.176z"/><path d="M21.789,5.144c0-0.139-0.113-0.253-0.252-0.253C9.661,4.891,0,14.553,0,26.429s9.661,21.537,21.537,21.537   c4.755,0,9.141-1.568,12.708-4.188L21.789,26.176V5.144z"/></g><text x="0" y="63" fill="#000000" font-size="5px" font-weight="bold" font-family="'Helvetica Neue', Helvetica, Arial-Unicode, Arial, Sans-serif">Created by Creative Stall</text><text x="0" y="68" fill="#000000" font-size="5px" font-weight="bold" font-family="'Helvetica Neue', Helvetica, Arial-Unicode, Arial, Sans-serif">from the Noun Project</text></svg>