<svg xmlns="http://www.w3.org/2000/svg" xmlns:xlink="http://www.w3.org/1999/xlink" version="1.1" x="0px" y="0px" viewBox="0 0 48 60" enable-background="new 0 0 48 48" xml:space="preserve"><g><g><path fill="#000000" d="M24,47.5C11,47.5,0.5,37,0.5,24S11,0.5,24,0.5S47.5,11,47.5,24S37,47.5,24,47.5z M24,4.4    C13.2,4.4,4.4,13.2,4.4,24c0,10.8,8.8,19.6,19.6,19.6c10.8,0,19.6-8.8,19.6-19.6C43.6,13.2,34.8,4.4,24,4.4z"/></g><g><g><path fill="#000000" d="M32.8,18.7c-1.1,0-2-0.9-2-2v-0.2c0-1.1,0.9-2,2-2c1.1,0,2,0.9,2,2v0.2C34.7,17.9,33.8,18.7,32.8,18.7z"/></g><g><path fill="#000000" d="M15.2,18.7c-1.1,0-2-0.9-2-2v-0.2c0-1.1,0.9-2,2-2c1.1,0,2,0.9,2,2v0.2C17.2,17.9,16.3,18.7,15.2,18.7z"/></g></g><g><path fill="#000000" d="M24,35.5c-4.4,0-8.8-1.7-12.1-5c-0.8-0.8-0.8-2,0-2.8c0.8-0.8,2-0.8,2.8,0c5.2,5.2,13.6,5.2,18.8,0    c0.8-0.8,2-0.8,2.8,0c0.8,0.8,0.8,2,0,2.8C32.8,33.8,28.4,35.5,24,35.5z"/></g></g><text x="0" y="63" fill="#000000" font-size="5px" font-weight="bold" font-family="'Helvetica Neue', Helvetica, Arial-Unicode, Arial, Sans-serif">Created by Vectors Market</text><text x="0" y="68" fill="#000000" font-size="5px" font-weight="bold" font-family="'Helvetica Neue', Helvetica, Arial-Unicode, Arial, Sans-serif">from the Noun Project</text></svg>