<svg xmlns="http://www.w3.org/2000/svg" xmlns:xlink="http://www.w3.org/1999/xlink" version="1.1" x="0px" y="0px" viewBox="0 0 100 125" enable-background="new 0 0 100 100" xml:space="preserve"><path d="M92.5,5h-85C6.119,5,5,6.119,5,7.5v85C5,93.881,6.119,95,7.5,95h85c1.381,0,2.5-1.119,2.5-2.5v-85C95,6.119,93.881,5,92.5,5  z M33.333,90H10V66.667h23.333V90z M33.333,61.667H10V38.333h23.333V61.667z M61.667,90H38.333V66.667h23.333V90z M61.667,61.667  H38.333V38.333h23.333V61.667z M90,90H66.667V66.667H90V90z M90,61.667H66.667V38.333H90V61.667z M90,33.333H10V10h80V33.333z"/><text x="0" y="115" fill="#000000" font-size="5px" font-weight="bold" font-family="'Helvetica Neue', Helvetica, Arial-Unicode, Arial, Sans-serif">Created by Arthur Shlain</text><text x="0" y="120" fill="#000000" font-size="5px" font-weight="bold" font-family="'Helvetica Neue', Helvetica, Arial-Unicode, Arial, Sans-serif">from the Noun Project</text></svg>