<svg xmlns="http://www.w3.org/2000/svg" xmlns:xlink="http://www.w3.org/1999/xlink" version="1.1" x="0px" y="0px" viewBox="0 0 100 125" enable-background="new 0 0 100 100" xml:space="preserve"><g display="none"><g display="inline"><path fill="#000000" stroke="#E00C02" stroke-width="4" stroke-miterlimit="10" d="M82,35H31c-7.15,0-13,5.85-13,13v39"/></g><polyline display="inline" fill="#000000" stroke="#E00C02" stroke-width="4" stroke-miterlimit="10" points="60,57 82,35 60,13  "/><g display="inline"><path fill="#000000" stroke="#E00C02" stroke-width="4" stroke-miterlimit="10" d="M82,35H31c-7.15,0-13,5.85-13,13v39"/></g><polyline display="inline" fill="#000000" stroke="#E00C02" stroke-width="4" stroke-miterlimit="10" points="60,57 82,35 60,13  "/></g><g><path d="M58.586,14.414L77.171,33H31c-8.271,0-15,6.729-15,15v39h4V48c0-6.065,4.935-11,11-11h46.171L58.586,55.586l2.828,2.828   L84.829,35L61.414,11.586L58.586,14.414z"/></g><text x="0" y="115" fill="#000000" font-size="5px" font-weight="bold" font-family="'Helvetica Neue', Helvetica, Arial-Unicode, Arial, Sans-serif">Created by Yuri Mazursky</text><text x="0" y="120" fill="#000000" font-size="5px" font-weight="bold" font-family="'Helvetica Neue', Helvetica, Arial-Unicode, Arial, Sans-serif">from the Noun Project</text></svg>