<svg xmlns:dc="http://purl.org/dc/elements/1.1/" xmlns:cc="http://creativecommons.org/ns#" xmlns:rdf="http://www.w3.org/1999/02/22-rdf-syntax-ns#" xmlns:svg="http://www.w3.org/2000/svg" xmlns="http://www.w3.org/2000/svg" xmlns:sodipodi="http://sodipodi.sourceforge.net/DTD/sodipodi-0.dtd" xmlns:inkscape="http://www.inkscape.org/namespaces/inkscape" version="1.1" x="0px" y="0px" viewBox="0 0 100 125"><g transform="translate(0,-952.36218)"><path style="" d="m 41.666744,974.02896 c -11.966362,0 -21.666727,9.66669 -21.666727,21.6668 0,0 -0.0016,-0.02 0,0.3122 C 14.053673,999.00796 10,1005.0289 10,1012.3622 c 0,10.0001 8.208016,18.3334 18.333376,18.3334 l 0.104008,0 44.062587,0 0.833334,0 C 82.536651,1030.6956 90,1023.0289 90,1014.029 c 0,-7.0001 -4.32334,-13.0625 -10.416678,-15.72934 0.236662,-0.66669 0.416663,-1.6041 0.416663,-2.6041 0,-6.6666 -5.22335,-11.66669 -11.666692,-11.66669 -2.660001,0 -5.120004,0.6249 -7.083344,2.29169 -3.476676,-7.3334 -10.940027,-12.29176 -19.583372,-12.29176 z m 8.333338,16.6668 13.333368,16.66674 -6.66668,0 0,16.6666 -13.333368,0 0,-16.6666 -6.666667,0 13.333347,-16.66674 z" fill="#000000"/></g><text x="0" y="115" fill="#000000" font-size="5px" font-weight="bold" font-family="'Helvetica Neue', Helvetica, Arial-Unicode, Arial, Sans-serif">Created by Dalpat Prajapati</text><text x="0" y="120" fill="#000000" font-size="5px" font-weight="bold" font-family="'Helvetica Neue', Helvetica, Arial-Unicode, Arial, Sans-serif">from the Noun Project</text></svg>